PathFileType	4	(X/Y/Z)	C:/Users/opensim2020/Desktop/walking_exp_matlab/subject06_walking12_straigt_04.trc	
DataRate	CameraRate	NumFrames	NumMarkers	Units	OrigDataRate	OrigDataStartFrame	OrigNumFrames	
100.00	100.00	6	48	mm	100.00	2856	181	
Frame#	Time	LFHD			RFHD			LBHD			RBHD			C7			T10			CLAV			STRN			RBAK			LSHO			LUPA			LELB			LFRM			LWRA			LWRB			LFIN			RSHO			RUPA			RELB			RFRM			RWRA			RWRB			RFIN			LASI			RASI			LPSI			RPSI			LTHI			LKNE			LTIB			LANK			LHEE			LTOE			RTHI			RKNE			RTIB			RANK			RHEE			RTOE			*39			*40			*41			*42			*43			*44			*45			*46			*47			
		X1	Y1	Z1	X2	Y2	Z2	X3	Y3	Z3	X4	Y4	Z4	X5	Y5	Z5	X6	Y6	Z6	X7	Y7	Z7	X8	Y8	Z8	X9	Y9	Z9	X10	Y10	Z10	X11	Y11	Z11	X12	Y12	Z12	X13	Y13	Z13	X14	Y14	Z14	X15	Y15	Z15	X16	Y16	Z16	X17	Y17	Z17	X18	Y18	Z18	X19	Y19	Z19	X20	Y20	Z20	X21	Y21	Z21	X22	Y22	Z22	X23	Y23	Z23	X24	Y24	Z24	X25	Y25	Z25	X26	Y26	Z26	X27	Y27	Z27	X28	Y28	Z28	X29	Y29	Z29	X30	Y30	Z30	X31	Y31	Z31	X32	Y32	Z32	X33	Y33	Z33	X34	Y34	Z34	X35	Y35	Z35	X36	Y36	Z36	X37	Y37	Z37	X38	Y38	Z38	X39	Y39	Z39	X40	Y40	Z40	X41	Y41	Z41	X42	Y42	Z42	X43	Y43	Z43	X44	Y44	Z44	X45	Y45	Z45	X46	Y46	Z46	X47	Y47	Z47	X48	Y48	Z48	

91	0.900	1512.95276	172.96805	1655.18530	1381.17896	176.43967	1643.17065	1516.72144	305.17807	1597.25720	1387.64832	307.33014	1591.53809	1454.40857	305.31381	1440.56250	1439.35144	334.96768	1110.77917	1455.31079	194.34305	1365.05164	1456.41382	152.21167	1191.09290	1365.57495	374.18097	1272.28210	1615.96301	256.71173	1392.84619	1680.79626	310.04095	1198.36987	1685.63892	348.44626	1091.99854	1701.62695	371.00266	942.56592	1647.74487	355.96024	816.53662	1694.36292	408.36371	829.48566	1683.70874	400.00760	738.62872	1294.04321	235.92365	1401.14282	1199.44934	250.40366	1203.88562	1186.73462	218.21219	1087.18958	1180.80627	150.31136	989.87579	1233.14697	33.87446	908.02887	1190.79150	74.66090	876.59448	1196.79590	2.84267	836.31720	1549.70752	141.80600	963.16144	1331.76978	158.28722	954.90424	1531.85938	304.44058	983.19910	1364.01733	308.46814	978.20270	1619.53772	150.49944	652.65125	1589.31580	114.44055	494.99042	1576.55933	115.00797	236.95143	1529.25000	99.63456	68.08498	1482.80811	137.75024	53.12783	1522.64758	-46.37442	44.16965	1276.02417	239.72475	617.74518	1285.10242	248.04529	490.01736	1299.63452	443.64511	306.31744	1348.23328	574.15808	176.03693	1397.13782	611.59998	187.17662	1354.65906	500.74026	40.91606	1455.86963	275.71512	1690.81653																								 
92	0.910	1514.29211	161.93085	1655.77747	1382.47461	165.65741	1644.03967	1518.18445	294.35846	1598.19653	1388.98853	296.84207	1592.79321	1455.64893	294.62994	1441.06653	1440.82434	323.66306	1111.68640	1456.12439	183.43263	1366.07629	1457.07434	140.71196	1192.36121	1366.78540	363.36304	1272.86279	1616.92847	245.09848	1393.87793	1682.02063	296.27704	1198.84753	1687.01697	333.60809	1092.19434	1703.28833	354.59323	942.58667	1649.81543	338.59482	816.47504	1696.36792	390.83408	829.15808	1685.55566	382.03409	738.27527	1295.25586	225.96027	1402.31763	1200.80249	241.07848	1205.20081	1188.92834	210.37814	1087.91956	1182.57397	144.30664	989.03448	1234.44226	29.49206	904.22894	1192.13733	71.42514	873.91797	1197.87805	0.27434	831.81232	1551.57703	130.30150	964.69421	1333.59436	147.34378	955.68182	1533.53748	292.71756	984.64941	1365.92615	297.40363	978.57404	1621.03125	140.54071	653.56750	1590.68958	107.02541	495.22397	1577.03796	110.98997	237.01138	1529.00610	98.80270	68.22251	1482.82886	137.39105	53.45770	1522.73022	-47.07170	43.51822	1275.37085	223.87816	617.71893	1283.14905	229.03004	489.71625	1299.09924	425.64539	310.89539	1348.59253	560.02893	185.26207	1397.75012	596.21527	199.03102	1354.12622	495.17023	44.64759	1457.47498	264.76059	1691.78442																								 
93	0.920	1515.57068	150.88013	1656.44690	1383.66577	155.11188	1644.95251	1519.53662	283.60962	1599.00940	1390.36377	286.25922	1593.88000	1457.05139	283.94339	1441.67249	1442.42468	312.42941	1112.45361	1456.88892	172.45139	1367.04517	1457.67798	129.40523	1193.39612	1368.08240	352.70352	1273.38647	1617.91125	233.48799	1394.85083	1683.23425	282.48831	1199.27747	1688.47473	318.60754	1092.31262	1705.08032	337.78064	942.46936	1651.68713	320.16583	816.54767	1698.33057	372.78226	828.72034	1687.63245	363.17700	737.79053	1296.36548	216.06544	1403.31506	1202.09326	231.79092	1206.22559	1190.89539	202.72043	1088.36218	1184.23328	138.64420	987.98651	1235.70044	25.66642	900.21295	1193.25867	68.30887	870.96704	1199.17407	-1.90769	826.94727	1553.28479	118.97072	965.77258	1335.12695	136.90607	956.12469	1535.20447	281.35971	985.94537	1367.78394	286.80283	978.77087	1622.37268	131.86975	653.98718	1592.06860	100.64632	494.97775	1577.56641	107.57611	236.81940	1528.78979	98.13998	68.20186	1482.75464	137.00047	53.82137	1522.33655	-47.83062	42.96486	1274.71570	208.44373	617.59387	1281.66479	209.86685	489.50150	1298.71399	406.61505	314.89572	1348.90662	544.58856	194.43471	1398.22900	579.23608	210.56546	1353.49133	488.75980	48.66010	1459.01221	253.97038	1692.70129																								 
94	0.930	1516.64880	140.28392	1657.13110	1384.80261	144.64336	1645.95874	1520.87549	272.86710	1599.76062	1391.69995	275.81497	1594.89709	1458.19336	273.12830	1442.36340	1444.10046	301.34100	1113.14380	1457.60425	161.64532	1367.91785	1458.32715	118.31680	1194.25769	1369.72852	342.18649	1273.89917	1618.94446	221.92456	1395.75366	1684.44397	268.93472	1199.68115	1690.09143	303.60834	1092.26038	1706.99268	320.80032	942.25677	1653.97693	301.23001	816.46075	1700.31860	354.27216	827.99915	1689.91479	343.61087	737.20990	1297.33923	206.08397	1404.06738	1203.20630	222.71085	1206.90723	1192.61658	195.39079	1088.47107	1185.80090	133.28265	986.61487	1236.83899	21.98521	895.93585	1194.09692	65.36328	867.97852	1200.42871	-3.61793	821.82135	1554.71509	107.94946	966.42181	1336.29480	126.50279	956.42401	1537.07483	270.24969	986.88470	1369.70996	276.56210	978.81348	1623.49609	124.31304	654.03760	1593.31506	94.75541	494.59418	1577.97693	104.67077	236.58624	1528.52734	97.45105	68.15999	1482.60364	136.90340	54.29514	1522.08325	-48.50017	42.44500	1274.48779	193.17879	617.56824	1280.70508	190.63309	489.50201	1298.21277	387.12939	318.72974	1349.20459	527.85608	202.78079	1398.66736	561.03748	221.10506	1352.88171	482.07175	52.35493	1460.45947	243.32526	1693.58203																								 
95	0.940	1517.78906	129.55769	1658.02185	1385.87573	134.23335	1647.01794	1522.00391	262.06207	1600.50525	1392.83264	265.35431	1595.85352	1459.38464	262.30594	1443.22217	1445.78467	290.46741	1113.77075	1458.28979	150.76088	1368.89233	1458.99792	107.41170	1195.03857	1371.40466	331.75595	1274.43542	1619.95764	210.33705	1396.54004	1685.95850	254.79460	1199.84827	1691.76636	288.46777	1092.06897	1708.89514	303.51285	941.83966	1656.24963	281.89188	816.32996	1702.33704	335.23572	827.21161	1692.81189	322.80936	736.76459	1298.02063	196.01434	1404.69128	1204.22119	213.85353	1207.28503	1194.05444	188.21309	1088.23767	1187.25989	128.12122	984.97992	1237.83081	18.63113	891.47943	1195.10925	63.00632	864.61591	1201.57788	-4.65766	816.48608	1555.90564	97.18622	966.80707	1337.22485	116.40934	956.65778	1538.80701	259.45923	987.74408	1371.55151	266.57620	978.79114	1624.54553	117.15102	654.00421	1594.35315	88.83649	494.23450	1578.26001	102.46650	236.40802	1528.26575	96.86801	68.10466	1482.58459	136.18015	54.18410	1522.10461	-48.93960	42.09916	1274.59753	178.10144	617.70221	1280.20972	171.43987	490.07471	1297.75610	366.83084	322.08920	1349.58215	510.26764	210.19533	1399.25854	541.60864	230.16130	1351.79395	472.95267	56.70128	1461.78284	232.86476	1694.45569																								 
96	0.950	1518.73242	119.08413	1658.93518	1386.78748	123.95914	1648.28491	1523.22266	251.52711	1601.20178	1393.97668	254.93843	1596.69104	1460.61914	251.54106	1444.22070	1447.53699	279.78308	1114.45996	1458.88721	140.03761	1369.72632	1459.65833	96.75766	1195.65808	1373.35181	321.53027	1275.08484	1621.01343	198.73222	1397.34900	1687.37988	240.89810	1200.01416	1693.54749	273.23306	1091.76086	1710.97351	285.79898	941.39703	1658.59009	261.91830	816.19147	1704.40967	315.67215	826.29248	1695.24426	301.66998	736.02991	1298.67932	185.81197	1405.12061	1205.27124	205.55315	1207.31628	1195.36804	181.20851	1087.79968	1188.59314	123.22736	983.08881	1238.76941	15.87315	886.75507	1195.91003	60.90056	861.37286	1202.59338	-5.41634	810.99768	1556.93335	86.66354	967.07166	1337.93384	106.45528	956.93085	1540.59766	248.93411	988.56110	1373.28931	256.71982	978.75995	1625.23621	110.12427	653.95862	1595.17761	83.00616	493.96140	1578.63806	100.41660	236.41127	1528.05188	96.92416	68.11315	1482.49182	136.30521	54.55603	1522.13721	-49.17461	41.83906	1274.87427	163.07037	618.16626	1280.00415	152.06218	491.09140	1297.33350	346.21878	324.83698	1350.39136	492.17096	216.74251	1401.13684	521.99170	237.57166	1349.74988	460.99191	61.08322	1462.96484	222.49336	1695.28198																								 
